<svg width="30" height="30" viewBox="0 0 30 30" fill="none" xmlns="http://www.w3.org/2000/svg">
<path fill-rule="evenodd" clip-rule="evenodd" d="M15 0C11.0464 0 7.29641 1.57188 4.43301 4.4345C1.57618 7.29073 0 11.0479 0 14.9968C0 18.9457 1.57618 22.7029 4.43301 25.5655C7.28984 28.4217 11.0464 30 15 30C18.9536 30 22.7036 28.4217 25.567 25.5655C28.4238 22.7029 30 18.9521 30 14.9968C30 11.0415 28.4238 7.29073 25.567 4.42811C22.7036 1.57188 18.9536 0 15 0ZM15 1.75719C18.356 1.75719 21.7053 3.06709 24.3257 5.67412C29.5534 10.9073 29.5534 19.0927 24.3257 24.3195C21.7119 26.9329 18.356 28.2364 15 28.2364C11.644 28.2364 8.28809 26.9329 5.67426 24.3195C0.453153 19.099 0.453153 10.901 5.67426 5.67412C8.28809 3.0607 11.6375 1.75719 15 1.75719Z" fill="#8C64D7"/>
<path fill-rule="evenodd" clip-rule="evenodd" d="M15.2889 4.0509C13.4237 4.0509 11.6308 4.76017 10.3765 6.01256C9.06297 7.29691 8.33398 9.04771 8.33398 10.8816C8.33398 12.3065 9.50299 13.4567 10.9413 13.4567C12.3795 13.4567 13.5485 12.3001 13.5485 10.8816C13.5485 9.87199 14.3826 9.15633 15.2889 9.15633C15.591 9.15633 15.8997 9.23301 16.1886 9.40554C17.3445 10.1084 17.2854 11.7889 16.0835 12.4087C14.4089 13.265 13.2924 14.6068 12.8721 16.2745C12.5371 17.642 13.3778 19.0221 14.7569 19.38C14.9737 19.4375 15.1969 19.463 15.4137 19.463C16.5564 19.463 17.6072 18.7091 17.9224 17.5717C17.9487 17.4758 18.0144 17.2394 18.4872 16.9966C20.4575 15.987 21.8169 14.1084 22.1584 11.9423C22.4999 9.76975 21.7709 7.57167 20.2079 6.01895C18.9535 4.77295 17.1606 4.05729 15.2889 4.05729V4.0509ZM15.2889 5.76975C16.7009 5.76975 18.0406 6.3001 18.9798 7.22662C21.0157 9.24579 21.0157 12.511 18.9798 14.5237C18.6054 14.9007 18.1654 15.2138 17.6926 15.4567C16.9242 15.8464 16.4316 16.4087 16.2477 17.1116C16.1295 17.4822 15.788 17.7186 15.4202 17.7186C15.348 17.7186 15.2692 17.7059 15.1969 17.6867C14.7504 17.5717 14.468 17.1244 14.5665 16.6771C14.8686 15.4886 15.6501 14.5621 16.8913 13.9231C18.9798 12.856 19.4198 10.0765 17.7517 8.43429C17.0687 7.77614 16.1821 7.45026 15.2955 7.45026C14.4089 7.45026 13.5223 7.77614 12.8392 8.43429C12.1825 9.07966 11.8147 9.95506 11.8147 10.8688C11.8147 11.3416 11.4272 11.725 10.9478 11.725C10.4684 11.725 10.0744 11.3416 10.0744 10.8688C10.0744 9.49499 10.6194 8.1787 11.6046 7.21384C12.5371 6.29371 13.8769 5.75697 15.2889 5.75697V5.76975Z" fill="#8C64D7"/>
<path fill-rule="evenodd" clip-rule="evenodd" d="M15.0919 21.0798C14.1199 21.0798 13.2399 21.6741 12.8721 22.5814C12.4978 23.4888 12.7079 24.5367 13.391 25.2332C13.8507 25.6996 14.468 25.9488 15.0919 25.9488C15.4006 25.9488 15.7158 25.8849 16.0114 25.7635C16.9111 25.3865 17.4956 24.5048 17.4956 23.5143C17.4956 22.1725 16.4185 21.0862 15.0919 21.0862V21.0798ZM15.0919 22.6964C15.5057 22.6964 15.8997 23.0223 15.8997 23.5079C15.8997 23.9552 15.5385 24.3195 15.0985 24.3195C14.3826 24.3195 14.028 23.444 14.5337 22.9329C14.6979 22.7667 14.9015 22.6964 15.0985 22.6964H15.0919Z" fill="#8C64D7"/>
</svg>
