<svg width="26" height="30" viewBox="0 0 26 30" fill="none" xmlns="http://www.w3.org/2000/svg">
<path fill-rule="evenodd" clip-rule="evenodd" d="M2.55475 0C1.31325 0 0.246614 0.920925 0.0367826 2.18574C-0.173048 3.45055 0.532217 4.68622 1.7096 5.11754V16.0404C0.68959 16.4134 0.00181076 17.4043 0.00181076 18.5176C0.00181076 19.9747 1.15005 21.1521 2.56641 21.158H10.0387L3.63888 28.5428C3.33579 28.9042 3.36493 29.4463 3.70882 29.7727C3.87203 29.9242 4.07603 29.9942 4.28003 29.9942C4.50735 29.9942 4.74049 29.9009 4.90952 29.7144L11.9563 21.5893V29.1257C11.9563 29.6095 12.341 30 12.8132 30C13.2853 30 13.6641 29.6037 13.6641 29.1257V21.5893L20.711 29.7144C20.88 29.8951 21.1073 29.9883 21.3346 29.9883C21.5386 29.9883 21.7426 29.9126 21.9058 29.7669C22.2497 29.4463 22.2847 28.8984 21.9758 28.537L15.5759 21.158H23.0482C24.2897 21.158 25.3622 20.237 25.572 18.9664C25.7819 17.7074 25.0766 16.4659 23.8992 16.0404V5.11754C25.0708 4.69205 25.7819 3.45055 25.572 2.18574C25.3622 0.920925 24.3014 0 23.0599 0L2.55475 0ZM23.0482 17.6433C23.5145 17.6433 23.8992 18.0338 23.8992 18.5176C23.8992 19.0014 23.5145 19.3977 23.0482 19.3977H2.56641C2.09429 19.3977 1.7096 19.0014 1.7096 18.5176C1.7096 18.0338 2.09429 17.6433 2.56641 17.6433H23.0482ZM23.0482 1.76025C23.5145 1.76025 23.8992 2.15077 23.8992 2.64037C23.8992 3.12998 23.5145 3.51467 23.0482 3.51467H2.56641C2.09429 3.51467 1.7096 3.11832 1.7096 2.64037C1.7096 2.16242 2.09429 1.76025 2.56641 1.76025H23.0482Z" fill="#8C64D7"/>
</svg>
