<svg width="30" height="28" viewBox="0 0 30 28" fill="none" xmlns="http://www.w3.org/2000/svg">
<path fill-rule="evenodd" clip-rule="evenodd" d="M3.94068 0C1.78455 0 0 1.77966 0 3.92601C0 6.07236 1.78455 7.77868 3.94068 7.77868H27.0714C27.8879 7.77868 28.3328 6.88885 27.8145 6.22392C27.3696 5.55411 27.0714 4.7425 27.0714 3.92601C27.0714 3.03618 27.3696 2.22458 27.8145 1.55476C28.2595 0.963168 27.8145 0 27.0714 0L3.94068 0Z" fill="#8C64D7"/>
<path d="M24.4459 10.0032H22.2262V17.7819H24.4459V10.0032Z" fill="#8C64D7"/>
<path fill-rule="evenodd" clip-rule="evenodd" d="M26.1131 10.0032V17.7819H29.0662C29.5306 17.7085 30 17.2636 30 16.8187V10.9663C30 10.3748 29.5355 10.0032 29.0662 10.0032H26.1131Z" fill="#8C64D7"/>
<path fill-rule="evenodd" clip-rule="evenodd" d="M2.73304 10.0032C2.12189 10.0032 1.66231 10.5214 1.66231 11.0397V16.892C1.66231 17.4103 2.12189 17.7819 2.73304 17.7819H20.5541V10.0032H2.73304Z" fill="#8C64D7"/>
<path d="M7.77379 20.0066H6.11147V27.7853H7.77379V20.0066Z" fill="#8C64D7"/>
<path fill-rule="evenodd" clip-rule="evenodd" d="M10.0033 20.0066V27.7804H26.8954C27.4087 27.7804 27.7754 27.2572 27.7754 26.8074V20.9013C27.7754 20.3782 27.3354 20.0066 26.8954 20.0066H10.0033Z" fill="#8C64D7"/>
<path fill-rule="evenodd" clip-rule="evenodd" d="M0.987614 20.0017C0.420469 20.0017 0 20.4466 0 20.8915V26.7439C0 27.2621 0.425358 27.7804 0.987614 27.7804H3.8869V20.0017H0.987614Z" fill="#8C64D7"/>
</svg>
