<svg width="30" height="31" viewBox="0 0 30 31" fill="none" xmlns="http://www.w3.org/2000/svg">
<path fill-rule="evenodd" clip-rule="evenodd" d="M13.503 5.09119C13.0167 5.09119 12.614 5.49392 12.614 5.98024V7.27204C12.2872 7.43161 12.1277 7.5152 11.8845 7.59119L10.9954 6.70213C10.7523 6.45897 10.5927 6.38298 10.3495 6.38298C10.19 6.38298 9.86321 6.46657 9.77963 6.70213L7.27203 9.20213C7.02887 9.44529 6.94528 9.60486 6.94528 9.84803C6.94528 10.0076 7.02887 10.3343 7.27203 10.4103L8.16109 11.2994C8.0775 11.5426 8.00151 11.8617 7.83434 12.0213H6.54255C6.05622 12.0213 5.65349 12.424 5.65349 12.9103V16.4514C5.65349 16.9377 6.05622 17.3404 6.54255 17.3404H7.83434C7.91033 17.6596 8.0775 17.9027 8.16109 18.0623L7.27203 18.9514C7.02887 19.1945 6.94528 19.3541 6.94528 19.5973C6.94528 19.7568 7.02887 20.0836 7.27203 20.1596L9.77963 22.7356C9.9392 22.8951 10.1824 22.9787 10.3495 22.9787C10.5927 22.9787 10.9118 22.9027 10.9954 22.7356L11.8845 21.7705C12.1277 21.9377 12.3708 22.0137 12.614 22.0973V23.3891C12.614 23.9514 13.0167 24.3541 13.503 24.3541H17.0593C17.5456 24.3541 17.9483 23.9514 17.9483 23.3891V22.0973C18.2751 22.0137 18.4346 21.9377 18.6778 21.7705L19.5669 22.7356C19.81 22.8951 19.9696 22.9787 20.2128 22.9787C20.3723 22.9787 20.6991 22.9027 20.7827 22.7356L23.2903 20.1596C23.617 19.9164 23.617 19.2781 23.2903 18.9514L22.4012 18.0623C22.4772 17.9027 22.6444 17.576 22.728 17.3404H24.0197C24.5061 17.3404 24.9088 16.9377 24.9088 16.4514V12.9103C24.9088 12.424 24.5061 12.0213 24.0197 12.0213H22.728C22.6444 11.7021 22.4848 11.535 22.4012 11.2994L23.2903 10.4103C23.617 10.0912 23.617 9.52888 23.2903 9.20213L20.7827 6.70213C20.6231 6.45897 20.3799 6.38298 20.2128 6.38298C19.9696 6.38298 19.6504 6.46657 19.5669 6.70213L18.6778 7.59119C18.4346 7.5076 18.1915 7.43161 17.9483 7.27204V5.98024C17.9483 5.49392 17.5456 5.09119 17.0593 5.09119H13.503ZM16.2538 6.8617V7.98632C16.2538 8.38906 16.5805 8.71581 16.9833 8.79179C17.4696 8.87538 18.0319 9.19453 18.4422 9.43769C18.5562 9.49848 18.693 9.52128 18.8298 9.52128C19.0881 9.52128 19.3617 9.43009 19.5745 9.27812L20.3799 8.47265L21.5957 9.68085L20.7903 10.4863C20.4635 10.8055 20.4635 11.2082 20.7067 11.6109C21.0334 12.0973 21.193 12.6596 21.2766 13.1383C21.4362 13.541 21.6793 13.8678 22.0821 13.8678H23.2143V15.5623H22.0821C21.6793 15.5623 21.4362 15.8815 21.2766 16.2842C21.193 16.7705 20.8739 17.3328 20.7067 17.7356C20.4635 18.0547 20.6307 18.541 20.7903 18.8602L21.5957 19.6657L20.3799 20.8739L19.5745 20.0684C19.3997 19.8936 19.2021 19.8176 18.997 19.8176C18.8146 19.8176 18.6322 19.8784 18.4422 19.9924C17.9559 20.3116 17.4696 20.4787 16.9833 20.5547C16.5805 20.6307 16.2538 20.9574 16.2538 21.3602V22.4848H14.5593V21.3602C14.5593 20.9574 14.2325 20.7143 13.8298 20.5547C13.3435 20.4711 12.6976 20.152 12.2948 19.9924C12.2036 19.9088 12.0745 19.8708 11.9301 19.8708C11.6793 19.8708 11.3982 19.9696 11.2462 20.076L10.4407 20.8815L9.23252 19.6733L10.038 18.8678C10.2811 18.5486 10.2811 18.1459 10.114 17.7432C9.78723 17.2568 9.62765 16.7781 9.46808 16.2918C9.39209 15.8891 9.06534 15.5699 8.66261 15.5699H7.61397V13.8754H8.66261C9.06534 13.8754 9.39209 13.5562 9.46808 13.1459C9.62765 12.6596 9.87081 12.0213 10.114 11.6185C10.2735 11.2994 10.1976 10.8131 10.038 10.4939L9.23252 9.68845L10.4407 8.48024L11.2462 9.28572C11.3906 9.47569 11.5881 9.55167 11.8085 9.55167C11.9681 9.55167 12.1353 9.51368 12.3024 9.44529C12.8647 9.12614 13.3511 8.88298 13.8374 8.79939C14.2401 8.72341 14.5669 8.39666 14.5669 7.99392V6.8693H16.2614L16.2538 6.8617Z" fill="#8C64D7"/>
<path fill-rule="evenodd" clip-rule="evenodd" d="M15.2811 10.7523C12.766 10.7523 10.7523 12.6596 10.7523 15.038C10.7523 17.4165 12.766 19.2402 15.2811 19.2402C17.7963 19.2402 19.81 17.4165 19.81 15.038C19.7264 12.6596 17.7963 10.7523 15.2811 10.7523ZM15.2811 12.4165C16.7097 12.4165 17.9635 13.6095 17.9635 15.038C17.9635 16.3906 16.7097 17.576 15.2811 17.576C13.769 17.576 12.5152 16.3906 12.5152 15.038C12.5152 13.6095 13.7766 12.4165 15.2811 12.4165Z" fill="#8C64D7"/>
<path fill-rule="evenodd" clip-rule="evenodd" d="M15.0456 0C11.1018 0 7.31763 1.45137 4.42249 4.43009C1.61094 7.25684 0 10.965 0 15C0 17.5836 0.721884 20.2432 2.17325 22.576L0.159574 28.7918C0 29.1109 0.159574 29.5137 0.326748 29.6809C0.509119 29.8632 0.775076 29.9544 1.00304 29.9544C1.07903 29.9544 1.14742 29.9468 1.20821 29.924L7.4772 27.9103C9.81003 29.2857 12.386 30.0076 15.038 30.0076C18.8982 30.0076 22.7584 28.4802 25.5775 25.5775C28.3967 22.7508 30 19.0426 30 15.0152C30 10.9878 28.4726 7.19605 25.5775 4.3693C22.6824 1.45137 18.9058 0 15.0456 0ZM15.0456 1.77052C22.2796 1.77052 28.1535 7.73556 28.1535 15C28.0775 22.1809 22.2796 28.0623 15.0456 28.0623C12.4696 28.0623 10.0608 27.4164 7.96353 26.0486C7.84954 25.9878 7.65957 25.9347 7.5 25.9347C7.43161 25.9347 7.37082 25.9422 7.32523 25.965L2.34043 27.576L3.95137 22.6596C4.03495 22.4164 3.95137 22.1733 3.87538 21.9301C2.59119 19.8328 1.8617 17.4164 1.8617 14.9924C1.8541 7.74316 7.80395 1.77052 15.0456 1.77052Z" fill="#8C64D7"/>
</svg>
